<?xml version="1.0" encoding="utf-8"?>
<!-- Generator: Adobe Illustrator 22.0.1, SVG Export Plug-In . SVG Version: 6.00 Build 0)  -->
<svg version="1.1" xmlns="http://www.w3.org/2000/svg" xmlns:xlink="http://www.w3.org/1999/xlink" x="0px" y="0px"
	 viewBox="0 0 800 500" style="enable-background:new 0 0 800 500;" xml:space="preserve">
<style type="text/css">
	.st0{fill:#C7E9F2;}
	.st1{fill:#81CFDF;}
	.st2{fill:#4FA887;}
	.st3{fill:#BAB7A3;}
	.st4{fill:#F2F1EF;}
	.st5{fill:#5E7A6F;}
	.st6{fill:#919081;}
	.st7{fill:#E3DBC6;}
	.st8{fill:#CACACA;}
	.st9{fill:#6DC497;}
	.st10{fill:#FFFFFF;}
	.st11{fill:none;}
	.st12{fill:#698EA1;}
	.st13{font-family:'Impact';}
	.st14{font-size:40px;}
	.st15{letter-spacing:30;}
</style>
<g id="Background">
	<rect class="st0" width="800" height="450"/>
</g>
<g id="Sea">
	<rect y="308" class="st1" width="800" height="192"/>
</g>
<g id="Mountains">
	<g>
		<path class="st2" d="M400,396.5c187.4,0,339.4-39.6,339.4-88.5H60.6C60.6,356.9,212.6,396.5,400,396.5z"/>
		<g>
			<polygon class="st3" points="344.7,342.7 302.4,323.4 340.2,240.4 349.6,260.3 372.2,220.4 392.3,260.3 			"/>
			<polygon class="st4" points="331.1,260.3 336.5,269.7 340.2,262 350.1,270.7 357.3,257 359,270.7 364.3,253 370.4,267.4 
				376.4,255.6 383.9,267.8 388.6,253 372.2,220.4 349.6,260.3 340.2,240.4 			"/>
			<polygon class="st5" points="417.2,382.4 684.5,350.9 547.3,342.7 708.2,331.1 531.5,321.4 472.8,329.8 			"/>
			<polygon class="st6" points="486.5,338.3 531.5,321.4 495.1,238.9 481.9,281.6 472,265.4 455.4,293.2 			"/>
			<polygon class="st7" points="340.2,344.4 417.2,382.4 417.2,203.9 405.6,238.9 397,224.4 			"/>
			<polygon class="st3" points="417.2,203.9 449.4,276.4 455.4,252.3 493.6,341.1 417.2,382.4 			"/>
			<polygon class="st4" points="386.1,247.6 393.4,242.1 395.2,253.4 403,242.8 407.5,256.1 412.1,246.9 417.2,260.3 417.2,203.9 
				405.6,238.9 397,224.4 			"/>
			<polygon class="st8" points="417.2,260.3 422.9,246.6 427.4,260.3 429.2,243.8 438.6,252.1 417.2,203.9 			"/>
			<polygon class="st4" points="489.4,257.6 493.4,262.8 495.7,256.9 502.6,263.5 503.6,258.2 495.1,238.9 			"/>
		</g>
		<g>
			<path class="st9" d="M236.1,296.6c0.5-0.8,0.8-1.7,0.8-2.7c0-3-2.4-5.4-5.4-5.4c-2.5,0-4.6,1.7-5.2,4c-2,0.6-3.4,2.5-3.4,4.7
				c0,2.1,1.3,3.9,3.2,4.6c-0.1,0.3-0.1,0.6-0.1,0.9c0,2.1,1.7,3.9,3.9,3.9c1.7,0,3.1-1.1,3.6-2.6c0.1,0,0.1,0,0.2,0
				c2.2,0,4.1-1.8,4.1-4.1C237.7,298.5,237.1,297.3,236.1,296.6z"/>
			<path class="st7" d="M234,300.1c0.1-0.1,0.1-0.3,0-0.3c-0.1-0.1-0.3-0.1-0.3,0l-1.9,1.9v-1.2c0,0,0,0,0,0v-2.6
				c0-0.1-0.1-0.2-0.2-0.2c-0.1,0-0.2,0.1-0.2,0.2v2l-3.1-3.1c-0.1-0.1-0.3-0.1-0.3,0c-0.1,0.1-0.1,0.3,0,0.3l3.5,3.5v1.7
				c0,0,0,0,0,0v1.4l-1.1-1.1c-0.1-0.1-0.3-0.1-0.3,0c-0.1,0.1-0.1,0.3,0,0.3l1.4,1.4v5.3c0,0.1,0.1,0.2,0.2,0.2
				c0.1,0,0.2-0.1,0.2-0.2v-5.4c0,0,0,0,0,0v-1.9L234,300.1z"/>
		</g>
		<g>
			<path class="st9" d="M160.2,302.7c0.4-0.6,0.6-1.4,0.6-2.1c0-2.3-1.9-4.2-4.2-4.2c-1.9,0-3.6,1.3-4.1,3.1
				c-1.5,0.5-2.7,1.9-2.7,3.6c0,1.6,1,3,2.5,3.6c-0.1,0.2-0.1,0.5-0.1,0.7c0,1.7,1.3,3,3,3c1.3,0,2.4-0.8,2.8-2c0,0,0.1,0,0.1,0
				c1.7,0,3.2-1.4,3.2-3.2C161.4,304.2,160.9,303.3,160.2,302.7z"/>
			<path class="st7" d="M158.5,305.5c0.1-0.1,0.1-0.2,0-0.3c-0.1-0.1-0.2-0.1-0.3,0l-1.5,1.5v-0.9v0v-2c0-0.1-0.1-0.2-0.2-0.2
				c-0.1,0-0.2,0.1-0.2,0.2v1.6l-2.5-2.5c-0.1-0.1-0.2-0.1-0.3,0c-0.1,0.1-0.1,0.2,0,0.3l2.7,2.7v1.3v0v1.1l-0.9-0.9
				c-0.1-0.1-0.2-0.1-0.3,0c-0.1,0.1-0.1,0.2,0,0.3l1.1,1.1v4.1c0,0.1,0.1,0.2,0.2,0.2c0.1,0,0.2-0.1,0.2-0.2v-4.2c0,0,0,0,0,0v-1.5
				L158.5,305.5z"/>
		</g>
		<g>
			<path class="st9" d="M616.3,295.6c0-7.8-2.1-14.1-4.7-14.1c-2.6,0-4.7,6.3-4.7,14.1c0,7.8,2.1,14.1,4.7,14.1
				C614.2,309.7,616.3,303.4,616.3,295.6z"/>
			<path class="st7" d="M611.8,303.8v-8c0-0.2-0.1-0.4-0.2-0.4c-0.1,0-0.2,0.2-0.2,0.4v7l-1.6-3c-0.1-0.2-0.2-0.2-0.3,0
				c-0.1,0.2-0.1,0.4,0,0.6l1.9,3.5v12.5c0,0.2,0.1,0.4,0.2,0.4c0.1,0,0.2-0.2,0.2-0.4V303.8C611.8,303.8,611.8,303.8,611.8,303.8z"
				/>
		</g>
	</g>
</g>
<g id="Clouds">
	<g>
		<path class="st10" d="M208.9,166.1c-0.4,0-0.9,0-1.3,0c-3.5-8-14-13.7-26.3-13.7c-12.2,0-22.5,5.7-26.2,13.5
			c-4-3.1-9.7-5.1-16.1-5.1c-12,0-21.7,10.6-21.7,19.2h109.1C224.8,174.2,217.6,166.1,208.9,166.1z"/>
		<path class="st10" d="M752.3,166.1c-0.4,0-0.9,0-1.3,0c-3.5-8-14-13.7-26.3-13.7c-12.2,0-22.5,5.7-26.2,13.5
			c-4-3.1-9.7-5.1-16.1-5.1c-12,0-21.7,10.6-21.7,19.2h109.1C768.2,174.2,761,166.1,752.3,166.1z"/>
		<path class="st10" d="M286.1,27.1c0.3,0,0.7,0,1,0c2.7-6.1,10.6-10.4,20-10.4c9.3,0,17.2,4.3,19.9,10.3c3-2.4,7.4-3.9,12.2-3.9
			c9.1,0,16.5,8.1,16.5,14.6h-83.1C274,33.3,279.5,27.1,286.1,27.1z"/>
		<path class="st10" d="M700.3,27.1c0.3,0,0.7,0,1,0c2.7-6.1,10.6-10.4,20-10.4c9.3,0,17.2,4.3,19.9,10.3c3-2.4,7.4-3.9,12.2-3.9
			c9.1,0,16.5,8.1,16.5,14.6h-83.1C688.2,33.3,693.7,27.1,700.3,27.1z"/>
		<path class="st10" d="M532.4,166.1c0.3,0,0.7,0,1,0c2.7-6.1,10.6-10.4,20-10.4c9.3,0,17.2,4.3,19.9,10.3c3-2.4,7.4-3.9,12.2-3.9
			c9.1,0,16.5,8.1,16.5,14.6H519C520.3,172.3,525.8,166.1,532.4,166.1z"/>
		<path class="st10" d="M692.6,75.8c-4.2,0-8,0.9-10.9,2.5c-5-7.5-17-12.8-31-12.8c-11.2,0-21,3.4-27.1,8.5c-3.9-2.2-8.7-3.5-14-3.5
			c-8.1,0-15.2,3.1-19.3,7.8c-2.9-1.6-6.8-2.5-10.9-2.5c-9.2,0-16.7,4.6-16.7,10.3h146.7C709.4,80.4,701.9,75.8,692.6,75.8z"/>
		<path class="st10" d="M42.1,51.4c4.2,0,8,0.9,10.9,2.5c5-7.5,17-12.8,31-12.8c11.2,0,21,3.4,27.1,8.5c3.9-2.2,8.7-3.5,14-3.5
			c8.1,0,15.2,3.1,19.3,7.8c2.9-1.6,6.8-2.5,10.9-2.5c9.2,0,16.7,4.6,16.7,10.3H25.3C25.3,56,32.8,51.4,42.1,51.4z"/>
		<path class="st10" d="M169.6,251.2c-4.2,0-8,0.9-10.9,2.5c-5-7.5-17-12.8-31-12.8c-11.2,0-21,3.4-27.1,8.5
			c-3.9-2.2-8.7-3.5-14-3.5c-8.1,0-15.2,3.1-19.3,7.8c-2.9-1.6-6.8-2.5-10.9-2.5c-9.2,0-16.7,4.6-16.7,10.3h146.7
			C186.3,255.8,178.8,251.2,169.6,251.2z"/>
		<path class="st10" d="M411.5,288.6c-3,0-5.7,0.7-7.8,1.8c-3.6-5.3-12.1-9.1-22.1-9.1c-8,0-15,2.4-19.4,6.1
			c-2.8-1.6-6.2-2.5-10-2.5c-5.8,0-10.9,2.2-13.8,5.5c-2.1-1.1-4.8-1.8-7.8-1.8c-6.6,0-12,3.3-12,7.3h104.7
			C423.5,291.9,418.1,288.6,411.5,288.6z"/>
		<path class="st10" d="M505.3,277.8c0.2,0,0.5,0,0.7,0c1.9-4.2,7.3-7.2,13.8-7.2c6.4,0,11.9,3,13.8,7.1c2.1-1.6,5.1-2.7,8.4-2.7
			c6.3,0,11.4,5.6,11.4,10.1H496C496.9,282.1,500.7,277.8,505.3,277.8z"/>
	</g>
</g>
<g id="Text">
	<rect x="126.3" y="109.4" class="st11" width="547.5" height="43.5"/>
	<text transform="matrix(1 0 0 1 141.8358 141.0494)" class="st12 st13 st14 st15">MATHventure</text>
</g>
</svg>
