<svg xmlns="http://www.w3.org/2000/svg" viewBox="0 0 800 500"><defs><style>.cls-1{fill:#c7e9f2;}.cls-2{fill:#81cfdf;}.cls-3{fill:#4fa887;}.cls-4{fill:#bab7a3;}.cls-5{fill:#f2f1ef;}.cls-6{fill:#5e7a6f;}.cls-7{fill:#919081;}.cls-8{fill:#e3dbc6;}.cls-9{fill:#cacaca;}.cls-10{fill:#6dc497;}.cls-11{fill:#fff;}.cls-12{font-size:40px;fill:#698ea1;font-family:Impact, Impact;letter-spacing:0.75em;}.cls-13{letter-spacing:0.69em;}</style></defs><title>background</title><g id="Background"><rect class="cls-1" width="800" height="450"/></g><g id="Sea"><rect class="cls-2" y="307.97" width="800" height="192.03"/></g><g id="Mountains"><path class="cls-3" d="M400,396.5c187.42,0,339.36-39.64,339.36-88.53H60.64C60.64,356.86,212.58,396.5,400,396.5Z"/><polygon class="cls-4" points="344.72 342.7 302.42 323.36 340.17 240.44 349.58 260.32 372.21 220.44 392.32 260.32 344.72 342.7"/><polygon class="cls-5" points="331.12 260.32 336.51 269.69 340.17 262 350.05 270.65 357.31 257 359 270.65 364.32 252.96 370.36 267.38 376.41 255.65 383.9 267.77 388.61 252.96 372.21 220.44 349.58 260.32 340.17 240.44 331.12 260.32"/><polygon class="cls-6" points="417.17 382.43 684.54 350.85 547.32 342.7 708.23 331.11 531.46 321.35 472.8 329.84 417.17 382.43"/><polygon class="cls-7" points="486.51 338.32 531.46 321.35 495.12 238.93 481.94 281.57 472.04 265.44 455.41 293.18 486.51 338.32"/><polygon class="cls-8" points="340.17 344.43 417.17 382.43 417.17 203.93 405.6 238.93 397.04 224.43 340.17 344.43"/><polygon class="cls-4" points="417.17 203.93 449.38 276.43 455.41 252.26 493.64 341.15 417.17 382.43 417.17 203.93"/><polygon class="cls-5" points="386.06 247.6 393.39 242.15 395.15 253.44 403.01 242.76 407.45 256.11 412.1 246.87 417.17 260.32 417.17 203.93 405.6 238.93 397.04 224.43 386.06 247.6"/><polygon class="cls-9" points="417.17 260.32 422.89 246.59 427.43 260.32 429.2 243.83 438.56 252.07 417.17 203.93 417.17 260.32"/><polygon class="cls-5" points="489.36 257.56 493.43 262.78 495.75 256.85 502.61 263.48 503.64 258.25 495.12 238.93 489.36 257.56"/><path class="cls-10" d="M236.14,296.6a5.47,5.47,0,0,0,.75-2.75,5.4,5.4,0,0,0-10.61-1.45,4.88,4.88,0,0,0-.24,9.23,3.86,3.86,0,0,0,7.4,2.2h.17a4.06,4.06,0,0,0,2.53-7.24Z"/><path class="cls-8" d="M234,300.12a.24.24,0,0,0,0-.35.25.25,0,0,0-.34,0l-1.88,1.88v-1.2h0v-2.62a.25.25,0,1,0-.49,0v2l-3.15-3.14a.24.24,0,1,0-.34.34l3.49,3.49v1.69h0v1.4l-1.1-1.1a.24.24,0,0,0-.35,0,.25.25,0,0,0,0,.34l1.45,1.45v5.28a.25.25,0,1,0,.49,0v-5.38h0v-1.89Z"/><path class="cls-10" d="M160.22,302.72a4.2,4.2,0,0,0-3.62-6.35,4.22,4.22,0,0,0-4.06,3.08,3.81,3.81,0,0,0-.19,7.2,3.19,3.19,0,0,0-.08.7,3,3,0,0,0,5.85,1h.13a3.16,3.16,0,0,0,2-5.64Z"/><path class="cls-8" d="M158.52,305.47a.2.2,0,0,0,0-.27.18.18,0,0,0-.27,0l-1.46,1.46v-.93h0v-2.05a.2.2,0,0,0-.19-.19.19.19,0,0,0-.19.19v1.59L154,302.82a.18.18,0,0,0-.27,0,.19.19,0,0,0,0,.26l2.73,2.73v1.31h0v1.09l-.86-.86a.2.2,0,0,0-.27,0,.18.18,0,0,0,0,.27l1.13,1.13v4.11a.18.18,0,0,0,.19.19.19.19,0,0,0,.19-.19v-4.19h0V307.2Z"/><path class="cls-10" d="M616.25,295.65c0-7.78-2.1-14.08-4.69-14.08s-4.69,6.3-4.69,14.08,2.1,14.07,4.69,14.07S616.25,303.42,616.25,295.65Z"/><path class="cls-8" d="M611.77,303.83v-8c0-.22-.09-.4-.21-.4s-.21.18-.21.4v7l-1.58-3c-.08-.15-.22-.15-.3,0a.71.71,0,0,0,0,.57l1.88,3.52v12.51c0,.22.09.4.21.4s.21-.18.21-.4V303.84Z"/></g><g id="Clouds"><path class="cls-11" d="M208.93,166.1c-.44,0-.87,0-1.3,0-3.53-7.95-14-13.71-26.27-13.71s-22.53,5.65-26.16,13.49a26.18,26.18,0,0,0-16.06-5.08c-12,0-21.67,10.61-21.67,19.15H226.53C224.83,174.16,217.59,166.1,208.93,166.1Z"/><path class="cls-11" d="M752.31,166.1c-.44,0-.87,0-1.29,0-3.54-7.95-14-13.71-26.28-13.71s-22.53,5.65-26.16,13.49a26.17,26.17,0,0,0-16.05-5.08c-12,0-21.67,10.61-21.67,19.15h109C768.21,174.16,761,166.1,752.31,166.1Z"/><path class="cls-11" d="M286.07,27.14c.33,0,.66,0,1,0,2.7-6.06,10.64-10.45,20-10.45S324.22,21,327,27a19.9,19.9,0,0,1,12.22-3.87c9.12,0,16.51,8.08,16.51,14.59H272.66C274,33.28,279.47,27.14,286.07,27.14Z"/><path class="cls-11" d="M700.26,27.14q.5,0,1,0c2.69-6.06,10.63-10.45,20-10.45S738.41,21,741.18,27a19.9,19.9,0,0,1,12.23-3.87c9.11,0,16.5,8.08,16.5,14.59h-83C688.15,33.28,693.66,27.14,700.26,27.14Z"/><path class="cls-11" d="M532.37,166.13c.33,0,.65,0,1,0,2.69-6.06,10.63-10.45,20-10.45S570.52,160,573.29,166a19.85,19.85,0,0,1,12.22-3.87c9.12,0,16.51,8.08,16.51,14.59H519C520.25,172.27,525.76,166.13,532.37,166.13Z"/><path class="cls-11" d="M692.64,75.8a23.62,23.62,0,0,0-10.91,2.49c-5-7.48-17-12.75-31-12.75-11.16,0-21,3.35-27.13,8.5a28.44,28.44,0,0,0-14-3.5c-8.11,0-15.23,3.1-19.26,7.76a23.67,23.67,0,0,0-10.93-2.5c-9.25,0-16.75,4.6-16.75,10.27H709.39C709.39,80.4,701.89,75.8,692.64,75.8Z"/><path class="cls-11" d="M42.06,51.4A23.74,23.74,0,0,1,53,53.88c5-7.48,17-12.75,31-12.75,11.16,0,21,3.35,27.12,8.5a28.43,28.43,0,0,1,14-3.49c8.12,0,15.23,3.09,19.26,7.75a23.75,23.75,0,0,1,10.94-2.49C164.5,51.4,172,56,172,61.67H25.31C25.31,56,32.81,51.4,42.06,51.4Z"/><path class="cls-11" d="M169.57,251.2a23.74,23.74,0,0,0-10.91,2.48c-5-7.48-17-12.75-31-12.75-11.17,0-21,3.36-27.13,8.5a28.54,28.54,0,0,0-14-3.49c-8.11,0-15.23,3.1-19.26,7.76a23.58,23.58,0,0,0-10.93-2.5c-9.25,0-16.75,4.6-16.75,10.27H186.32C186.32,255.8,178.82,251.2,169.57,251.2Z"/><path class="cls-11" d="M411.52,288.63a16.81,16.81,0,0,0-7.79,1.77c-3.57-5.34-12.13-9.1-22.13-9.1-8,0-15,2.39-19.36,6.06a20.31,20.31,0,0,0-10-2.49c-5.79,0-10.87,2.21-13.75,5.54a16.89,16.89,0,0,0-7.81-1.78c-6.6,0-11.95,3.28-11.95,7.32H423.47C423.47,291.91,418.12,288.63,411.52,288.63Z"/><path class="cls-11" d="M505.29,277.85l.68,0c1.86-4.18,7.34-7.22,13.82-7.22s11.85,3,13.76,7.1a13.79,13.79,0,0,1,8.45-2.67c6.29,0,11.4,5.58,11.4,10.07H496C496.92,282.09,500.73,277.85,505.29,277.85Z"/></g><g id="Text"><text class="cls-12" transform="translate(142.94 141.05)">M<tspan class="cls-13" x="58.67" y="0">A</tspan><tspan x="106.78" y="0">THventure</tspan></text></g></svg>